<svg xmlns="http://www.w3.org/2000/svg" version="1.1" xlinkHref="http://www.w3.org/1999/xlink" xmlnsSvgjs="http://svgjs.dev/svgjs" width="1000" height="338" viewBox="0 0 1000 338"><g transform="matrix(1,0,0,1,-0.6056348047761162,0.5130291349224194)"><svg viewBox="0 0 396 134" data-background-color="#ffffff" preserveAspectRatio="xMidYMid meet" height="338" width="1000" xmlns="http://www.w3.org/2000/svg" xlinkHref="http://www.w3.org/1999/xlink"><defs></defs><g id="tight-bounds" transform="matrix(1,0,0,1,0.24008861730862918,-0.20339024875622158)"><svg viewBox="0 0 395.52 134.40678049751241" height="134.40678049751241" width="395.52"><g><svg viewBox="0 0 395.52 134.40678049751241" height="134.40678049751241" width="395.52"><g><svg viewBox="0 0 395.52 134.40678049751241" height="134.40678049751241" width="395.52"><g><svg viewBox="0 0 395.52 134.40678049751241" height="134.40678049751241" width="395.52"><g><svg viewBox="0 0 395.52 134.40678049751241" height="134.40678049751241" width="395.52"><path d="M394.594 28.828C392.735 14.876 387.435 10.998 387.435 10.998 371.165-3.372 350.86-0.275 332.619 1.79 300.414 1.874 268.339 4.943 236.208 6.589 168.767 6.84 100.749 2.711 33.643 12.895 27.339 16.02-6.54 13.509 1.121 30.613 3.129 37.729 10.456 45.625 10.232 52.154 11.236 53.298 12.631 50.676 13.226 52.322 15.309 56.758 18.711 54.666 21.501 57.288 17.614 64.292 20.403 70.124 23.062 76.234 18.377 77.825 12.371 77.072 9.675 82.345 9.396 86.168 7.89 85.442 6.235 85.275 5.026 85.163 2.59 85.582 2.999 86.782 4.394 90.883-1.594 93.255 2.162 97.273-0.422 101.626 3.948 105.393 3.353 110.108 3.278 111.057 3.687 111.866 4.338 112.089 7.22 113.289 3.018 115.633 3.464 118.172 33.029 135.528 65.104 123.53 95.394 131.51 103.259 125.929 97.346 133.491 100.489 132.319 102.943 130.952 104.728 136.616 107.499 133.407 107.927 132.486 107.276 130.31 108.8 130.729 109.6 130.952 110.307 130.896 110.418 129.612 110.586 127.687 109.117 128.887 108.726 127.882 112.947 122.804 111.906 134.886 115.866 134.384 115.68 132.905 114.528 130.784 116.889 131.063 119.232 128.943 119.306 127.185 121.389 131.956 121.463 132.989 121.835 133.714 122.43 134.216 128.938 129.026 135.409 136.058 142.233 133.714 146.417 131.147 150.433 135.109 154.672 134.133 156.16 133.351 157.666 131.956 159.098 134.3 176.632 134.802 195.319 132.71 211.943 134.384 256.364 131.259 303.835 135.667 350.674 131.538 361.719 129.947 373.192 127.687 383.958 125.873 383.958 125.873 392.679 120.907 392.679 98.585S394.538 79.053 394.817 61.279C395.096 43.505 396.398 42.779 394.538 28.828Z" opacity="1" fill="#000000" data-fill-palette-color="tertiary"></path><g transform="matrix(1,0,0,1,55.76832,26.230666666666668)"><svg width="283.98335999999995" viewBox="2.0999999046325684 -36.75 160.77999877929688 46.400001525878906" height="81.94544716417909" data-palette-color="#c5fb6c"><path d="M2.1 0L2.1 0 2.1-23.85Q3.7-24.6 5.63-25.05 7.55-25.5 9.7-25.5L9.7-25.5Q12.65-25.5 14.05-24.13 15.45-22.75 15.83-20.2 16.2-17.65 16.2-14.1L16.2-14.1 16.2-0.9Q16.2-0.45 16-0.28 15.8-0.1 14.83-0.05 13.85 0 11.65 0L11.65 0 11.65-18.65Q11.65-19.75 11.53-20.38 11.4-21 10.98-21.28 10.55-21.55 9.55-21.55L9.55-21.55Q8.85-21.55 8.1-21.35 7.35-21.15 6.65-20.75L6.65-20.75 6.65-0.9Q6.65-0.45 6.43-0.28 6.2-0.1 5.25-0.05 4.3 0 2.1 0ZM11.65 0L11.65 0 11.65-21.55Q11.95-22.7 13.3-23.58 14.65-24.45 16.53-24.98 18.4-25.5 20.15-25.5L20.15-25.5Q22.65-25.5 23.85-24.7 25.05-23.9 25.4-22.33 25.75-20.75 25.75-18.55L25.75-18.55 25.75-0.9Q25.75-0.45 25.53-0.28 25.3-0.1 24.35-0.05 23.4 0 21.2 0L21.2 0 21.2-18.5Q21.2-20.1 20.78-20.78 20.35-21.45 19.05-21.45L19.05-21.45Q18.35-21.45 17.63-21.3 16.9-21.15 16.2-20.7L16.2-20.7 16.2-0.9Q16.2-0.45 16.05-0.28 15.9-0.1 14.93-0.05 13.95 0 11.65 0ZM37.2 0.5L37.2 0.5Q35.25 0.5 33.77 0.03 32.3-0.45 31.3-1.8 30.3-3.15 29.82-5.73 29.35-8.3 29.35-12.5L29.35-12.5Q29.35-19.35 31.55-22.43 33.75-25.5 37.65-25.5L37.65-25.5Q40.3-25.5 42.02-24.43 43.75-23.35 44.57-20.55 45.4-17.75 45.4-12.65L45.4-12.65Q45.4-5.6 43.32-2.55 41.25 0.5 37.2 0.5ZM37.35-3.35L37.35-3.35Q38.25-3.35 38.92-4.05 39.6-4.75 40.02-6.75 40.45-8.75 40.45-12.6L40.45-12.6Q40.45-16.45 40.15-18.4 39.85-20.35 39.2-21 38.55-21.65 37.5-21.65L37.5-21.65Q36.55-21.65 35.82-20.95 35.1-20.25 34.7-18.25 34.3-16.25 34.3-12.45L34.3-12.45Q34.3-9.45 34.5-7.6 34.7-5.75 35.07-4.85 35.45-3.95 36.02-3.65 36.6-3.35 37.35-3.35ZM48.7 0L48.7 0 48.7-23.8Q49.65-24.25 50.97-24.63 52.3-25 53.77-25.25 55.25-25.5 56.55-25.5L56.55-25.5Q59.2-25.5 60.72-24.88 62.25-24.25 62.95-22.8 63.65-21.35 63.65-18.9L63.65-18.9 63.65-0.9Q63.65-0.45 63.42-0.28 63.2-0.1 62.22-0.05 61.25 0 58.95 0L58.95 0 58.95-17.5Q58.95-19.75 58.47-20.65 58-21.55 56.4-21.55L56.4-21.55Q55.7-21.55 54.82-21.35 53.95-21.15 53.25-20.75L53.25-20.75 53.25-0.9Q53.25-0.45 53.05-0.28 52.85-0.1 51.9-0.05 50.95 0 48.7 0ZM75.14 0.5L75.14 0.5Q73.39 0.5 71.94 0 70.49-0.5 69.44-1.75 68.39-3 67.79-5.3 67.19-7.6 67.19-11.25L67.19-11.25Q67.19-15.9 67.94-18.73 68.69-21.55 69.94-23 71.19-24.45 72.79-24.98 74.39-25.5 76.04-25.5L76.04-25.5Q79.14-25.5 80.79-23.53 82.44-21.55 82.44-17.45L82.44-17.45Q82.44-15.7 82.29-13.9 82.14-12.1 81.79-10.75L81.79-10.75Q80.14-10.4 78.12-10.23 76.09-10.05 74.22-10 72.34-9.95 71.14-9.95 69.94-9.95 69.94-9.95L69.94-9.95 70.04-13.65Q70.04-13.65 70.89-13.63 71.74-13.6 73.04-13.6 74.34-13.6 75.62-13.73 76.89-13.85 77.74-14.1L77.74-14.1Q77.89-14.75 77.94-15.53 77.99-16.3 77.99-17L77.99-17Q77.94-19.6 77.42-20.55 76.89-21.5 75.49-21.5L75.49-21.5Q74.69-21.5 74.04-21 73.39-20.5 72.92-19.35 72.44-18.2 72.19-16.28 71.94-14.35 71.94-11.45L71.94-11.45Q71.94-9.3 72.17-7.85 72.39-6.4 72.87-5.55 73.34-4.7 74.17-4.33 74.99-3.95 76.14-3.95L76.14-3.95Q77.59-3.95 79.02-4.35 80.44-4.75 81.69-5.45L81.69-5.45Q81.94-4.8 82.02-3.93 82.09-3.05 82.09-2.35L82.09-2.35Q82.09-1.5 81.14-0.85 80.19-0.2 78.62 0.15 77.04 0.5 75.14 0.5ZM87.69 9.65L87.69 9.65Q85.24 9.65 84.32 9.05 83.39 8.45 83.39 7.5L83.39 7.5Q83.39 6.9 83.57 6.18 83.74 5.45 84.04 5L84.04 5Q84.54 5.3 85.44 5.53 86.34 5.75 87.29 5.75L87.29 5.75Q88.39 5.75 89.24 4.7 90.09 3.65 90.54 0.8L90.54 0.8 84.74-23.75Q84.59-24.4 84.72-24.65 84.84-24.9 85.84-24.95 86.84-25 89.19-25L89.19-25 91.49-14.15Q91.79-12.6 92.02-11 92.24-9.4 92.42-8 92.59-6.6 92.69-5.75 92.79-4.9 92.79-4.9L92.79-4.9Q92.79-4.9 92.87-5.75 92.94-6.6 93.12-7.98 93.29-9.35 93.52-10.98 93.74-12.6 93.94-14.2L93.94-14.2 95.74-23.7Q95.84-24.35 96.09-24.6 96.34-24.85 97.34-24.93 98.34-25 100.64-25L100.64-25 94.69 1.3Q93.94 4.45 93.04 6.3 92.14 8.15 90.87 8.9 89.59 9.65 87.69 9.65ZM103.39 0L103.39 0 103.39-34.7Q103.39-35.75 103.74-36.18 104.09-36.6 105.09-36.68 106.09-36.75 107.94-36.75L107.94-36.75 107.94-0.9Q107.94-0.45 107.74-0.28 107.54-0.1 106.59-0.05 105.64 0 103.39 0ZM119.29 0.5L119.29 0.5Q117.54 0.5 116.09 0 114.64-0.5 113.59-1.75 112.54-3 111.94-5.3 111.34-7.6 111.34-11.25L111.34-11.25Q111.34-15.9 112.09-18.73 112.84-21.55 114.09-23 115.34-24.45 116.94-24.98 118.54-25.5 120.19-25.5L120.19-25.5Q123.29-25.5 124.94-23.53 126.59-21.55 126.59-17.45L126.59-17.45Q126.59-15.7 126.44-13.9 126.29-12.1 125.94-10.75L125.94-10.75Q124.29-10.4 122.26-10.23 120.24-10.05 118.36-10 116.49-9.95 115.29-9.95 114.09-9.95 114.09-9.95L114.09-9.95 114.19-13.65Q114.19-13.65 115.04-13.63 115.89-13.6 117.19-13.6 118.49-13.6 119.76-13.73 121.04-13.85 121.89-14.1L121.89-14.1Q122.04-14.75 122.09-15.53 122.14-16.3 122.14-17L122.14-17Q122.09-19.6 121.56-20.55 121.04-21.5 119.64-21.5L119.64-21.5Q118.84-21.5 118.19-21 117.54-20.5 117.06-19.35 116.59-18.2 116.34-16.28 116.09-14.35 116.09-11.45L116.09-11.45Q116.09-9.3 116.31-7.85 116.54-6.4 117.01-5.55 117.49-4.7 118.31-4.33 119.14-3.95 120.29-3.95L120.29-3.95Q121.74-3.95 123.16-4.35 124.59-4.75 125.84-5.45L125.84-5.45Q126.09-4.8 126.16-3.93 126.24-3.05 126.24-2.35L126.24-2.35Q126.24-1.5 125.29-0.85 124.34-0.2 122.76 0.15 121.19 0.5 119.29 0.5ZM136.23 0.5L136.23 0.5Q134.83 0.5 133.56 0.28 132.28 0.05 131.26-0.73 130.23-1.5 129.66-3.05 129.08-4.6 129.08-7.15L129.08-7.15Q129.08-9.75 129.61-11.38 130.13-13 131.06-13.88 131.98-14.75 133.11-15.08 134.23-15.4 135.43-15.4L135.43-15.4Q136.18-15.4 137.21-15.25 138.23-15.1 138.93-14.7L138.93-14.7Q138.93-14.7 138.93-15.35 138.93-16 138.93-16.9 138.93-17.8 138.93-18.5L138.93-18.5Q138.93-19.5 138.63-20.05 138.33-20.6 137.73-20.85 137.13-21.1 136.18-21.1L136.18-21.1Q134.43-21.1 132.68-20.78 130.93-20.45 129.78-20L129.78-20Q129.38-20.7 129.26-21.4 129.13-22.1 129.13-22.6L129.13-22.6Q129.13-23 129.28-23.45 129.43-23.9 129.73-24.1L129.73-24.1Q130.33-24.5 132.38-25 134.43-25.5 137.33-25.5L137.33-25.5Q140.63-25.5 142.08-24.15 143.53-22.8 143.53-19.4L143.53-19.4 143.53-16.85Q143.53-14 143.51-11.08 143.48-8.15 143.43-5.6 143.38-3.05 143.28-1.15L143.28-1.15Q142.18-0.5 140.38 0 138.58 0.5 136.23 0.5ZM136.58-3.3L136.58-3.3Q137.28-3.3 137.91-3.53 138.53-3.75 138.78-4L138.78-4Q138.88-4.75 138.91-6.05 138.93-7.35 138.93-8.83 138.93-10.3 138.93-11.55L138.93-11.55Q138.53-11.8 137.96-11.9 137.38-12 136.93-12L136.93-12Q136.33-12 135.76-11.83 135.18-11.65 134.76-11.13 134.33-10.6 134.11-9.7 133.88-8.8 133.88-7.3L133.88-7.3Q133.88-6.1 134.06-5.33 134.23-4.55 134.58-4.1 134.93-3.65 135.46-3.48 135.98-3.3 136.58-3.3ZM147.33 0L147.33 0 147.33-34.7Q147.33-35.75 147.68-36.18 148.03-36.6 149.03-36.68 150.03-36.75 151.93-36.75L151.93-36.75 151.93-23.5Q153.08-24.4 154.68-24.95 156.28-25.5 157.83-25.5L157.83-25.5Q159.53-25.5 160.46-24.88 161.38-24.25 161.73-23.28 162.08-22.3 162.08-21.2L162.08-21.2Q162.08-19.7 161.68-18.45 161.28-17.2 160.68-16.25 160.08-15.3 159.46-14.63 158.83-13.95 158.33-13.55L158.33-13.55Q159.58-12.85 160.53-11.63 161.48-10.4 162.11-8.68 162.73-6.95 162.83-4.75L162.83-4.75Q162.88-3.85 162.88-2.85 162.88-1.85 162.73-0.8L162.73-0.8Q162.68-0.4 162.46-0.23 162.23-0.05 161.16-0.03 160.08 0 157.53 0L157.53 0Q157.73-1.65 157.73-3.1 157.73-4.55 157.58-5.8L157.58-5.8Q157.43-7.25 157.08-8.33 156.73-9.4 156.26-10.13 155.78-10.85 155.18-11.13 154.58-11.4 153.83-11.2L153.83-11.2Q153.43-11.15 152.98-10.93 152.53-10.7 152.23-10.53 151.93-10.35 151.93-10.35L151.93-10.35 151.93-0.9Q151.93-0.45 151.76-0.28 151.58-0.1 150.61-0.05 149.63 0 147.33 0ZM151.93-19.35L151.93-13.55Q153.43-14.2 154.58-15.05 155.73-15.9 156.36-17.03 156.98-18.15 156.98-19.6L156.98-19.6Q156.98-21.4 155.43-21.4L155.43-21.4Q154.53-21.4 153.63-20.88 152.73-20.35 151.93-19.35L151.93-19.35Z" opacity="1" transform="matrix(1,0,0,1,0,0)" fill="#c5fb6c" class="undefined-text-0" data-fill-palette-color="quaternary" id="text-0"></path></svg></g></svg></g></svg></g></svg></g><g></g></svg></g></svg><rect width="395.52" height="134.40678049751241" fill="none" stroke="none" visibility="hidden"></rect></g></svg></g></svg>